<mxfile host="app.diagrams.net" modified="2021-06-06T00:17:58.857Z" agent="5.0 (Windows NT 10.0; Win64; x64) AppleWebKit/537.36 (KHTML, like Gecko) Chrome/91.0.4472.77 Safari/537.36" etag="0yke5Bl4cmIiW1Emdk8U" version="14.7.6" type="github">
  <diagram id="iLOddAPAIE1e-kMwzZWQ" name="Page-1">
    <mxGraphModel dx="3422" dy="2617" grid="1" gridSize="10" guides="1" tooltips="1" connect="1" arrows="1" fold="1" page="1" pageScale="1" pageWidth="827" pageHeight="1169" math="0" shadow="0">
      <root>
        <mxCell id="0" />
        <mxCell id="1" parent="0" />
        <mxCell id="YBIj9dUf-_-UlEt8Z0m0-15" value="" style="edgeStyle=orthogonalEdgeStyle;rounded=0;orthogonalLoop=1;jettySize=auto;html=1;" parent="1" source="YBIj9dUf-_-UlEt8Z0m0-1" target="YBIj9dUf-_-UlEt8Z0m0-14" edge="1">
          <mxGeometry relative="1" as="geometry">
            <Array as="points">
              <mxPoint x="-240" y="660" />
              <mxPoint x="-240" y="689" />
            </Array>
          </mxGeometry>
        </mxCell>
        <mxCell id="YBIj9dUf-_-UlEt8Z0m0-16" value="" style="edgeStyle=orthogonalEdgeStyle;rounded=0;orthogonalLoop=1;jettySize=auto;html=1;" parent="1" source="YBIj9dUf-_-UlEt8Z0m0-1" target="YBIj9dUf-_-UlEt8Z0m0-6" edge="1">
          <mxGeometry relative="1" as="geometry">
            <Array as="points">
              <mxPoint x="-240" y="640" />
              <mxPoint x="-240" y="599" />
            </Array>
          </mxGeometry>
        </mxCell>
        <mxCell id="YBIj9dUf-_-UlEt8Z0m0-1" value="&lt;font style=&quot;vertical-align: inherit&quot;&gt;&lt;font style=&quot;vertical-align: inherit ; font-size: 21px&quot;&gt;FAKÜLTE&lt;/font&gt;&lt;/font&gt;" style="rounded=0;whiteSpace=wrap;html=1;" parent="1" vertex="1">
          <mxGeometry x="-210" y="614" width="170" height="60" as="geometry" />
        </mxCell>
        <mxCell id="YBIj9dUf-_-UlEt8Z0m0-21" value="" style="edgeStyle=orthogonalEdgeStyle;rounded=0;orthogonalLoop=1;jettySize=auto;html=1;" parent="1" source="YBIj9dUf-_-UlEt8Z0m0-2" target="YBIj9dUf-_-UlEt8Z0m0-20" edge="1">
          <mxGeometry relative="1" as="geometry">
            <Array as="points">
              <mxPoint x="-248" y="350" />
              <mxPoint x="-248" y="310" />
            </Array>
          </mxGeometry>
        </mxCell>
        <mxCell id="YBIj9dUf-_-UlEt8Z0m0-24" value="" style="edgeStyle=orthogonalEdgeStyle;rounded=0;orthogonalLoop=1;jettySize=auto;html=1;" parent="1" source="YBIj9dUf-_-UlEt8Z0m0-2" target="YBIj9dUf-_-UlEt8Z0m0-23" edge="1">
          <mxGeometry relative="1" as="geometry">
            <Array as="points">
              <mxPoint x="-248" y="380" />
              <mxPoint x="-248" y="415" />
            </Array>
          </mxGeometry>
        </mxCell>
        <mxCell id="YBIj9dUf-_-UlEt8Z0m0-2" value="&lt;font style=&quot;vertical-align: inherit&quot;&gt;&lt;font style=&quot;vertical-align: inherit ; font-size: 20px&quot;&gt;&lt;font style=&quot;vertical-align: inherit&quot;&gt;&lt;font style=&quot;vertical-align: inherit&quot;&gt;EPIDOSE&lt;/font&gt;&lt;/font&gt;&lt;/font&gt;&lt;/font&gt;" style="rounded=0;whiteSpace=wrap;html=1;" parent="1" vertex="1">
          <mxGeometry x="-210" y="330" width="170" height="60" as="geometry" />
        </mxCell>
        <mxCell id="YBIj9dUf-_-UlEt8Z0m0-6" value="&lt;span style=&quot;font-size: 24px&quot;&gt;&lt;u&gt;ID&lt;/u&gt;&lt;/span&gt;" style="ellipse;whiteSpace=wrap;html=1;rounded=0;" parent="1" vertex="1">
          <mxGeometry x="-490" y="564" width="240" height="70" as="geometry" />
        </mxCell>
        <mxCell id="YBIj9dUf-_-UlEt8Z0m0-14" value="&lt;font style=&quot;vertical-align: inherit&quot;&gt;&lt;font style=&quot;vertical-align: inherit ; font-size: 19px&quot;&gt;FACULTYNAME&lt;/font&gt;&lt;/font&gt;" style="ellipse;whiteSpace=wrap;html=1;rounded=0;" parent="1" vertex="1">
          <mxGeometry x="-490" y="654" width="220" height="70" as="geometry" />
        </mxCell>
        <mxCell id="YBIj9dUf-_-UlEt8Z0m0-20" value="&lt;font style=&quot;vertical-align: inherit&quot;&gt;&lt;font style=&quot;vertical-align: inherit ; font-size: 22px&quot;&gt;&lt;u&gt;ID&lt;/u&gt;&lt;/font&gt;&lt;/font&gt;" style="ellipse;whiteSpace=wrap;html=1;rounded=0;" parent="1" vertex="1">
          <mxGeometry x="-520" y="270" width="235" height="80" as="geometry" />
        </mxCell>
        <mxCell id="YBIj9dUf-_-UlEt8Z0m0-26" value="" style="edgeStyle=orthogonalEdgeStyle;rounded=0;orthogonalLoop=1;jettySize=auto;html=1;" parent="1" source="YBIj9dUf-_-UlEt8Z0m0-22" target="YBIj9dUf-_-UlEt8Z0m0-25" edge="1">
          <mxGeometry relative="1" as="geometry" />
        </mxCell>
        <mxCell id="YBIj9dUf-_-UlEt8Z0m0-28" value="" style="edgeStyle=orthogonalEdgeStyle;rounded=0;orthogonalLoop=1;jettySize=auto;html=1;" parent="1" source="YBIj9dUf-_-UlEt8Z0m0-22" target="YBIj9dUf-_-UlEt8Z0m0-27" edge="1">
          <mxGeometry relative="1" as="geometry" />
        </mxCell>
        <mxCell id="YBIj9dUf-_-UlEt8Z0m0-30" value="" style="edgeStyle=orthogonalEdgeStyle;rounded=0;orthogonalLoop=1;jettySize=auto;html=1;" parent="1" source="YBIj9dUf-_-UlEt8Z0m0-22" target="YBIj9dUf-_-UlEt8Z0m0-29" edge="1">
          <mxGeometry relative="1" as="geometry" />
        </mxCell>
        <mxCell id="YBIj9dUf-_-UlEt8Z0m0-22" value="&lt;font style=&quot;vertical-align: inherit ; font-size: 21px&quot;&gt;&lt;font style=&quot;vertical-align: inherit ; font-size: 21px&quot;&gt;&lt;font style=&quot;vertical-align: inherit&quot;&gt;&lt;font style=&quot;vertical-align: inherit&quot;&gt;ROL&lt;/font&gt;&lt;/font&gt;&lt;/font&gt;&lt;/font&gt;" style="rounded=0;whiteSpace=wrap;html=1;" parent="1" vertex="1">
          <mxGeometry y="110" width="210" height="60" as="geometry" />
        </mxCell>
        <mxCell id="YBIj9dUf-_-UlEt8Z0m0-23" value="&lt;font style=&quot;vertical-align: inherit ; font-size: 19px&quot;&gt;&lt;font style=&quot;vertical-align: inherit ; font-size: 19px&quot;&gt;&lt;font style=&quot;vertical-align: inherit ; font-size: 19px&quot;&gt;&lt;font style=&quot;vertical-align: inherit ; font-size: 19px&quot;&gt;EPİDOSANAME&lt;/font&gt;&lt;/font&gt;&lt;/font&gt;&lt;/font&gt;" style="ellipse;whiteSpace=wrap;html=1;rounded=0;" parent="1" vertex="1">
          <mxGeometry x="-520" y="370" width="235" height="90" as="geometry" />
        </mxCell>
        <mxCell id="YBIj9dUf-_-UlEt8Z0m0-25" value="&lt;font style=&quot;vertical-align: inherit&quot;&gt;&lt;font style=&quot;vertical-align: inherit ; font-size: 25px&quot;&gt;&lt;u&gt;ID&lt;/u&gt;&lt;/font&gt;&lt;/font&gt;" style="ellipse;whiteSpace=wrap;html=1;rounded=0;" parent="1" vertex="1">
          <mxGeometry x="45" y="-30" width="120" height="60" as="geometry" />
        </mxCell>
        <mxCell id="YBIj9dUf-_-UlEt8Z0m0-27" value="&lt;font style=&quot;vertical-align: inherit&quot;&gt;&lt;font style=&quot;vertical-align: inherit ; font-size: 19px&quot;&gt;ROLNAME&lt;/font&gt;&lt;/font&gt;" style="ellipse;whiteSpace=wrap;html=1;rounded=0;" parent="1" vertex="1">
          <mxGeometry x="-320" y="80" width="195" height="90" as="geometry" />
        </mxCell>
        <mxCell id="YBIj9dUf-_-UlEt8Z0m0-29" value="&lt;font style=&quot;vertical-align: inherit ; font-size: 20px&quot;&gt;&lt;font style=&quot;vertical-align: inherit ; font-size: 20px&quot;&gt;STATEROL&amp;nbsp;&lt;/font&gt;&lt;/font&gt;" style="ellipse;whiteSpace=wrap;html=1;rounded=0;" parent="1" vertex="1">
          <mxGeometry x="335" y="80" width="155" height="90" as="geometry" />
        </mxCell>
        <mxCell id="YBIj9dUf-_-UlEt8Z0m0-34" value="" style="edgeStyle=orthogonalEdgeStyle;rounded=0;orthogonalLoop=1;jettySize=auto;html=1;" parent="1" source="YBIj9dUf-_-UlEt8Z0m0-31" target="YBIj9dUf-_-UlEt8Z0m0-32" edge="1">
          <mxGeometry relative="1" as="geometry">
            <Array as="points">
              <mxPoint x="885" y="70" />
              <mxPoint x="620" y="70" />
            </Array>
          </mxGeometry>
        </mxCell>
        <mxCell id="YBIj9dUf-_-UlEt8Z0m0-36" value="" style="edgeStyle=orthogonalEdgeStyle;rounded=0;orthogonalLoop=1;jettySize=auto;html=1;" parent="1" source="YBIj9dUf-_-UlEt8Z0m0-31" target="YBIj9dUf-_-UlEt8Z0m0-35" edge="1">
          <mxGeometry relative="1" as="geometry" />
        </mxCell>
        <mxCell id="YBIj9dUf-_-UlEt8Z0m0-38" value="" style="edgeStyle=orthogonalEdgeStyle;rounded=0;orthogonalLoop=1;jettySize=auto;html=1;" parent="1" source="YBIj9dUf-_-UlEt8Z0m0-31" target="YBIj9dUf-_-UlEt8Z0m0-37" edge="1">
          <mxGeometry relative="1" as="geometry">
            <Array as="points">
              <mxPoint x="885" y="60" />
              <mxPoint x="1103" y="60" />
            </Array>
          </mxGeometry>
        </mxCell>
        <mxCell id="YBIj9dUf-_-UlEt8Z0m0-40" value="" style="edgeStyle=orthogonalEdgeStyle;rounded=0;orthogonalLoop=1;jettySize=auto;html=1;" parent="1" source="YBIj9dUf-_-UlEt8Z0m0-31" target="YBIj9dUf-_-UlEt8Z0m0-39" edge="1">
          <mxGeometry relative="1" as="geometry">
            <Array as="points">
              <mxPoint x="885" y="60" />
              <mxPoint x="750" y="60" />
            </Array>
          </mxGeometry>
        </mxCell>
        <mxCell id="YBIj9dUf-_-UlEt8Z0m0-31" value="&lt;font style=&quot;vertical-align: inherit&quot;&gt;&lt;font style=&quot;vertical-align: inherit ; font-size: 23px&quot;&gt;USERS&lt;/font&gt;&lt;/font&gt;" style="rounded=0;whiteSpace=wrap;html=1;" parent="1" vertex="1">
          <mxGeometry x="790" y="80" width="190" height="75" as="geometry" />
        </mxCell>
        <mxCell id="YBIj9dUf-_-UlEt8Z0m0-32" value="&lt;font style=&quot;vertical-align: inherit&quot;&gt;&lt;font style=&quot;vertical-align: inherit&quot;&gt;&lt;font style=&quot;vertical-align: inherit&quot;&gt;&lt;font style=&quot;vertical-align: inherit&quot; size=&quot;1&quot;&gt;&lt;u style=&quot;font-size: 24px&quot;&gt;ID&lt;/u&gt;&lt;/font&gt;&lt;/font&gt;&lt;/font&gt;&lt;/font&gt;" style="ellipse;whiteSpace=wrap;html=1;rounded=0;" parent="1" vertex="1">
          <mxGeometry x="560" y="-60" width="120" height="60" as="geometry" />
        </mxCell>
        <mxCell id="YBIj9dUf-_-UlEt8Z0m0-35" value="&lt;font style=&quot;vertical-align: inherit&quot;&gt;&lt;font style=&quot;vertical-align: inherit ; font-size: 18px&quot;&gt;USERNAME&amp;nbsp;&lt;/font&gt;&lt;/font&gt;" style="ellipse;whiteSpace=wrap;html=1;rounded=0;" parent="1" vertex="1">
          <mxGeometry x="825" y="-70" width="155" height="62.5" as="geometry" />
        </mxCell>
        <mxCell id="YBIj9dUf-_-UlEt8Z0m0-37" value="&lt;font style=&quot;vertical-align: inherit&quot;&gt;&lt;font style=&quot;vertical-align: inherit ; font-size: 20px&quot;&gt;PASSWORDUSER&amp;nbsp;&lt;/font&gt;&lt;/font&gt;" style="ellipse;whiteSpace=wrap;html=1;rounded=0;" parent="1" vertex="1">
          <mxGeometry x="1010" y="-70" width="185" height="72.5" as="geometry" />
        </mxCell>
        <mxCell id="YBIj9dUf-_-UlEt8Z0m0-39" value="&lt;font style=&quot;font-size: 18px&quot;&gt;ROLID&lt;/font&gt;" style="ellipse;whiteSpace=wrap;html=1;rounded=0;" parent="1" vertex="1">
          <mxGeometry x="690" y="-70" width="120" height="60" as="geometry" />
        </mxCell>
        <mxCell id="9qWHaLuGM5IBSYy4G178-3" value="" style="edgeStyle=orthogonalEdgeStyle;rounded=0;orthogonalLoop=1;jettySize=auto;html=1;" edge="1" parent="1">
          <mxGeometry relative="1" as="geometry">
            <mxPoint x="516.0000000000005" y="692.9999999999995" as="sourcePoint" />
            <mxPoint x="-9" y="893" as="targetPoint" />
            <Array as="points">
              <mxPoint x="-9" y="693" />
            </Array>
          </mxGeometry>
        </mxCell>
        <mxCell id="9qWHaLuGM5IBSYy4G178-6" value="" style="edgeStyle=orthogonalEdgeStyle;rounded=0;orthogonalLoop=1;jettySize=auto;html=1;" edge="1" parent="1" target="9qWHaLuGM5IBSYy4G178-5">
          <mxGeometry relative="1" as="geometry">
            <mxPoint x="516.0000000000005" y="712.9999999999995" as="sourcePoint" />
            <Array as="points">
              <mxPoint x="121" y="713" />
            </Array>
          </mxGeometry>
        </mxCell>
        <mxCell id="9qWHaLuGM5IBSYy4G178-8" value="" style="edgeStyle=orthogonalEdgeStyle;rounded=0;orthogonalLoop=1;jettySize=auto;html=1;" edge="1" parent="1" target="9qWHaLuGM5IBSYy4G178-7">
          <mxGeometry relative="1" as="geometry">
            <mxPoint x="516.0000000000005" y="732.9999999999995" as="sourcePoint" />
            <Array as="points">
              <mxPoint x="238" y="733" />
            </Array>
          </mxGeometry>
        </mxCell>
        <mxCell id="9qWHaLuGM5IBSYy4G178-10" value="" style="edgeStyle=orthogonalEdgeStyle;rounded=0;orthogonalLoop=1;jettySize=auto;html=1;" edge="1" parent="1" source="9qWHaLuGM5IBSYy4G178-1" target="9qWHaLuGM5IBSYy4G178-9">
          <mxGeometry relative="1" as="geometry">
            <Array as="points">
              <mxPoint x="380" y="750" />
            </Array>
          </mxGeometry>
        </mxCell>
        <mxCell id="9qWHaLuGM5IBSYy4G178-12" value="" style="edgeStyle=orthogonalEdgeStyle;rounded=0;orthogonalLoop=1;jettySize=auto;html=1;" edge="1" parent="1" source="9qWHaLuGM5IBSYy4G178-1" target="9qWHaLuGM5IBSYy4G178-11">
          <mxGeometry relative="1" as="geometry">
            <Array as="points">
              <mxPoint x="600" y="855" />
              <mxPoint x="520" y="855" />
            </Array>
          </mxGeometry>
        </mxCell>
        <mxCell id="9qWHaLuGM5IBSYy4G178-15" value="" style="edgeStyle=orthogonalEdgeStyle;rounded=0;orthogonalLoop=1;jettySize=auto;html=1;" edge="1" parent="1" source="9qWHaLuGM5IBSYy4G178-1" target="9qWHaLuGM5IBSYy4G178-14">
          <mxGeometry relative="1" as="geometry" />
        </mxCell>
        <mxCell id="9qWHaLuGM5IBSYy4G178-17" value="" style="edgeStyle=orthogonalEdgeStyle;rounded=0;orthogonalLoop=1;jettySize=auto;html=1;" edge="1" parent="1" source="9qWHaLuGM5IBSYy4G178-1" target="9qWHaLuGM5IBSYy4G178-16">
          <mxGeometry relative="1" as="geometry">
            <Array as="points">
              <mxPoint x="710" y="800" />
              <mxPoint x="870" y="800" />
            </Array>
          </mxGeometry>
        </mxCell>
        <mxCell id="9qWHaLuGM5IBSYy4G178-19" value="" style="edgeStyle=orthogonalEdgeStyle;rounded=0;orthogonalLoop=1;jettySize=auto;html=1;" edge="1" parent="1" source="9qWHaLuGM5IBSYy4G178-1" target="9qWHaLuGM5IBSYy4G178-18">
          <mxGeometry relative="1" as="geometry">
            <Array as="points">
              <mxPoint x="1010" y="760" />
            </Array>
          </mxGeometry>
        </mxCell>
        <mxCell id="9qWHaLuGM5IBSYy4G178-21" value="" style="edgeStyle=orthogonalEdgeStyle;rounded=0;orthogonalLoop=1;jettySize=auto;html=1;" edge="1" parent="1" source="9qWHaLuGM5IBSYy4G178-1" target="9qWHaLuGM5IBSYy4G178-20">
          <mxGeometry relative="1" as="geometry">
            <Array as="points">
              <mxPoint x="540" y="640" />
              <mxPoint x="326" y="640" />
            </Array>
          </mxGeometry>
        </mxCell>
        <mxCell id="9qWHaLuGM5IBSYy4G178-23" value="" style="edgeStyle=orthogonalEdgeStyle;rounded=0;orthogonalLoop=1;jettySize=auto;html=1;" edge="1" parent="1" source="9qWHaLuGM5IBSYy4G178-1" target="9qWHaLuGM5IBSYy4G178-22">
          <mxGeometry relative="1" as="geometry">
            <Array as="points">
              <mxPoint x="600" y="617" />
              <mxPoint x="515" y="617" />
            </Array>
          </mxGeometry>
        </mxCell>
        <mxCell id="9qWHaLuGM5IBSYy4G178-26" value="" style="edgeStyle=orthogonalEdgeStyle;rounded=0;orthogonalLoop=1;jettySize=auto;html=1;" edge="1" parent="1" source="9qWHaLuGM5IBSYy4G178-1" target="9qWHaLuGM5IBSYy4G178-25">
          <mxGeometry relative="1" as="geometry" />
        </mxCell>
        <mxCell id="9qWHaLuGM5IBSYy4G178-28" value="" style="edgeStyle=orthogonalEdgeStyle;rounded=0;orthogonalLoop=1;jettySize=auto;html=1;" edge="1" parent="1" source="9qWHaLuGM5IBSYy4G178-1" target="9qWHaLuGM5IBSYy4G178-27">
          <mxGeometry relative="1" as="geometry">
            <Array as="points">
              <mxPoint x="690" y="642" />
              <mxPoint x="835" y="642" />
            </Array>
          </mxGeometry>
        </mxCell>
        <mxCell id="9qWHaLuGM5IBSYy4G178-30" value="" style="edgeStyle=orthogonalEdgeStyle;rounded=0;orthogonalLoop=1;jettySize=auto;html=1;" edge="1" parent="1" source="9qWHaLuGM5IBSYy4G178-1" target="9qWHaLuGM5IBSYy4G178-29">
          <mxGeometry relative="1" as="geometry">
            <Array as="points">
              <mxPoint x="1000" y="680" />
            </Array>
          </mxGeometry>
        </mxCell>
        <mxCell id="9qWHaLuGM5IBSYy4G178-32" value="" style="edgeStyle=orthogonalEdgeStyle;rounded=0;orthogonalLoop=1;jettySize=auto;html=1;" edge="1" parent="1" source="9qWHaLuGM5IBSYy4G178-1" target="9qWHaLuGM5IBSYy4G178-33">
          <mxGeometry relative="1" as="geometry">
            <mxPoint x="1110" y="720" as="targetPoint" />
            <Array as="points">
              <mxPoint x="860" y="700" />
              <mxPoint x="860" y="700" />
            </Array>
          </mxGeometry>
        </mxCell>
        <mxCell id="9qWHaLuGM5IBSYy4G178-36" value="" style="edgeStyle=orthogonalEdgeStyle;rounded=0;orthogonalLoop=1;jettySize=auto;html=1;" edge="1" parent="1" source="9qWHaLuGM5IBSYy4G178-1" target="9qWHaLuGM5IBSYy4G178-35">
          <mxGeometry relative="1" as="geometry">
            <Array as="points">
              <mxPoint x="948" y="730" />
              <mxPoint x="948" y="750" />
              <mxPoint x="1160" y="750" />
            </Array>
          </mxGeometry>
        </mxCell>
        <mxCell id="9qWHaLuGM5IBSYy4G178-1" value="&lt;font style=&quot;font-size: 41px&quot;&gt;UserDetails&lt;/font&gt;" style="rounded=0;whiteSpace=wrap;html=1;" vertex="1" parent="1">
          <mxGeometry x="515" y="670" width="270" height="110" as="geometry" />
        </mxCell>
        <mxCell id="9qWHaLuGM5IBSYy4G178-2" value="&lt;font style=&quot;font-size: 36px&quot;&gt;&lt;u&gt;ID&amp;nbsp;&lt;/u&gt;&lt;/font&gt;" style="ellipse;whiteSpace=wrap;html=1;rounded=0;" vertex="1" parent="1">
          <mxGeometry x="-142" y="893" width="230" height="70" as="geometry" />
        </mxCell>
        <mxCell id="9qWHaLuGM5IBSYy4G178-5" value="&lt;font style=&quot;font-size: 21px&quot;&gt;NAMESURNAME&amp;nbsp;&lt;/font&gt;" style="ellipse;whiteSpace=wrap;html=1;rounded=0;" vertex="1" parent="1">
          <mxGeometry x="16" y="803" width="210" height="80" as="geometry" />
        </mxCell>
        <mxCell id="9qWHaLuGM5IBSYy4G178-7" value="&lt;font style=&quot;font-size: 23px&quot;&gt;NUMBER&lt;/font&gt;" style="ellipse;whiteSpace=wrap;html=1;rounded=0;" vertex="1" parent="1">
          <mxGeometry x="146" y="893" width="185" height="80" as="geometry" />
        </mxCell>
        <mxCell id="9qWHaLuGM5IBSYy4G178-9" value="&lt;font style=&quot;font-size: 27px&quot;&gt;TCNUMBER&amp;nbsp;&lt;/font&gt;" style="ellipse;whiteSpace=wrap;html=1;rounded=0;" vertex="1" parent="1">
          <mxGeometry x="260" y="798" width="240" height="90" as="geometry" />
        </mxCell>
        <mxCell id="9qWHaLuGM5IBSYy4G178-11" value="&lt;font style=&quot;font-size: 30px&quot;&gt;GENDER&amp;nbsp;&lt;/font&gt;" style="ellipse;whiteSpace=wrap;html=1;rounded=0;" vertex="1" parent="1">
          <mxGeometry x="400" y="940" width="210" height="80" as="geometry" />
        </mxCell>
        <mxCell id="9qWHaLuGM5IBSYy4G178-14" value="&lt;font style=&quot;font-size: 23px&quot;&gt;BIRTHDAY&amp;nbsp;&lt;/font&gt;" style="ellipse;whiteSpace=wrap;html=1;rounded=0;" vertex="1" parent="1">
          <mxGeometry x="650" y="930" width="170" height="90" as="geometry" />
        </mxCell>
        <mxCell id="9qWHaLuGM5IBSYy4G178-16" value="&lt;font style=&quot;font-size: 25px&quot;&gt;ADDRES&amp;nbsp;&lt;/font&gt;" style="ellipse;whiteSpace=wrap;html=1;rounded=0;" vertex="1" parent="1">
          <mxGeometry x="790" y="840" width="180" height="90" as="geometry" />
        </mxCell>
        <mxCell id="9qWHaLuGM5IBSYy4G178-18" value="&lt;font style=&quot;font-size: 23px&quot;&gt;TELNUMBER&lt;/font&gt;" style="ellipse;whiteSpace=wrap;html=1;rounded=0;" vertex="1" parent="1">
          <mxGeometry x="920" y="950" width="180" height="90" as="geometry" />
        </mxCell>
        <mxCell id="9qWHaLuGM5IBSYy4G178-20" value="&lt;font style=&quot;font-size: 22px&quot;&gt;FACULTY&amp;nbsp;&lt;/font&gt;" style="ellipse;whiteSpace=wrap;html=1;rounded=0;" vertex="1" parent="1">
          <mxGeometry x="226" y="544" width="200" height="70" as="geometry" />
        </mxCell>
        <mxCell id="9qWHaLuGM5IBSYy4G178-22" value="&lt;font style=&quot;font-size: 22px&quot;&gt;EPIDOSE&lt;/font&gt;" style="ellipse;whiteSpace=wrap;html=1;rounded=0;" vertex="1" parent="1">
          <mxGeometry x="420" y="480" width="190" height="84" as="geometry" />
        </mxCell>
        <mxCell id="9qWHaLuGM5IBSYy4G178-25" value="&lt;font style=&quot;font-size: 22px&quot;&gt;USERCLASS&amp;nbsp;&lt;/font&gt;" style="ellipse;whiteSpace=wrap;html=1;rounded=0;" vertex="1" parent="1">
          <mxGeometry x="625" y="464" width="160" height="80" as="geometry" />
        </mxCell>
        <mxCell id="9qWHaLuGM5IBSYy4G178-27" value="&lt;font style=&quot;font-size: 24px&quot;&gt;IMAGES&amp;nbsp;&lt;/font&gt;" style="ellipse;whiteSpace=wrap;html=1;rounded=0;" vertex="1" parent="1">
          <mxGeometry x="760" y="534" width="150" height="80" as="geometry" />
        </mxCell>
        <mxCell id="9qWHaLuGM5IBSYy4G178-29" value="&lt;font style=&quot;font-size: 26px&quot;&gt;USERID&lt;/font&gt;" style="ellipse;whiteSpace=wrap;html=1;rounded=0;" vertex="1" parent="1">
          <mxGeometry x="925" y="529" width="170" height="90" as="geometry" />
        </mxCell>
        <mxCell id="9qWHaLuGM5IBSYy4G178-33" value="&lt;font style=&quot;font-size: 26px&quot;&gt;USERNAME&amp;nbsp;&lt;/font&gt;" style="ellipse;whiteSpace=wrap;html=1;" vertex="1" parent="1">
          <mxGeometry x="1061" y="640" width="180" height="90" as="geometry" />
        </mxCell>
        <mxCell id="9qWHaLuGM5IBSYy4G178-35" value="&lt;font style=&quot;font-size: 26px&quot;&gt;PASSWORD&amp;nbsp;&lt;/font&gt;" style="ellipse;whiteSpace=wrap;html=1;rounded=0;" vertex="1" parent="1">
          <mxGeometry x="1050" y="830" width="210" height="90" as="geometry" />
        </mxCell>
      </root>
    </mxGraphModel>
  </diagram>
</mxfile>
